<svg xmlns="http://www.w3.org/2000/svg" viewBox="0 0 230.961 41.266">
  <title>LOGO MENU MOBILE</title>
  <g>
    <g>
      <path d="M28.5,36.093a22.321,22.321,0,0,1-3.782,1.321v.249a.975.975,0,0,1-.767.915,28.614,28.614,0,0,1-14.24,0,.975.975,0,0,1-.767-.915v-.249A22.352,22.352,0,0,1,5.16,36.093,10.887,10.887,0,0,1,.622,32.611c-.017-.026-.034-.051-.05-.077V33.9a1.415,1.415,0,0,0,.393.989A19.245,19.245,0,0,0,3.9,37.369q.626.432,1.289.821l.1.059.176.1.21.118c.231.127.465.25.7.369a23.1,23.1,0,0,0,9.217,2.4q.612.03,1.227.032h.079q.591,0,1.178-.032a23.136,23.136,0,0,0,9.217-2.4c.165-.083.328-.168.491-.255.069-.037.139-.075.208-.114l.021-.012.035-.019c.105-.058.213-.119.331-.187q.717-.416,1.39-.881a19.3,19.3,0,0,0,2.929-2.482,1.42,1.42,0,0,0,.394-.99V32.534c-.017.026-.033.051-.051.077A10.881,10.881,0,0,1,28.5,36.093Z" style="fill: #f2f2f2"/>
      <path d="M15.619,38.609q.6.03,1.21.031t1.21-.031a22.932,22.932,0,0,0,5.194-.86.712.712,0,0,0,.518-.676V35.017a.694.694,0,0,0-.275-.553.724.724,0,0,0-.631-.127,24,24,0,0,1-12.031,0l-.045-.01-.014,0-.031-.006h-.016l-.029,0h-.06l-.052,0h0l-.054.007-.012,0a.312.312,0,0,0-.044.009l-.009,0a.491.491,0,0,0-.051.015l-.011,0-.04.016-.012,0-.048.024-.007,0-.04.023-.011.008-.045.031a.7.7,0,0,0-.274.553v2.056a.711.711,0,0,0,.517.676A22.941,22.941,0,0,0,15.619,38.609Z" style="fill: #f2f2f2"/>
      <path d="M32.568,15.421c-.021-.049-.042-.1-.064-.148l-.03-.068.012-.074.014-.08a46.123,46.123,0,0,0,.449-9.423,19.63,19.63,0,0,0-.567-3.975C32.1.664,31.732.081,31.342.01c-.5-.09-1.846.426-3.74,1.781A23.525,23.525,0,0,0,22.675,6.53l0,0-.01.013-.007.007-.01.01-.008.007-.01.008-.01.007-.009.006L22.6,6.6l-.01,0-.011,0-.012.005-.01,0-.014,0-.009,0-.015,0h-.07l-.013,0-.01,0-.015,0H22.4a18.707,18.707,0,0,0-5.574-.84,18.521,18.521,0,0,0-5.567.848h0a.2.2,0,0,1-.033.008h0a.184.184,0,0,1-.033,0h-.009a.184.184,0,0,1-.033,0h-.006l-.03-.007-.005,0a.169.169,0,0,1-.031-.013l-.006,0a.239.239,0,0,1-.056-.04l-.006-.006-.021-.024,0,0h0A23.51,23.51,0,0,0,6.06,1.794C4.164.436,2.813-.08,2.316.01c-.39.071-.76.655-1.04,1.646a19.676,19.676,0,0,0-.567,3.98,45.966,45.966,0,0,0,.465,9.507h0v.006l0,.018v.009a.076.076,0,0,1,0,.015v.025l0,.013v.01l0,.017,0,.007-.007.019,0,0h0A13.348,13.348,0,0,0,.014,20.1c-.009.2-.014.413-.014.626v8.394a4.278,4.278,0,0,0,.541,2.045v0c.085.157.181.315.286.47a9.425,9.425,0,0,0,3.193,2.759q.585.333,1.243.637.565.261,1.175.494a23.825,23.825,0,0,0,2.972.913V35.017a1.188,1.188,0,0,1,.468-.946,1.213,1.213,0,0,1,.711-.255,1.232,1.232,0,0,1,.35.041c.118.031.237.061.356.09s.224.054.336.079a23.552,23.552,0,0,0,11.087-.169,1.216,1.216,0,0,1,1.061.214,1.187,1.187,0,0,1,.467.946v1.419a23.842,23.842,0,0,0,2.973-.913q.608-.233,1.174-.494.659-.3,1.244-.637a9.444,9.444,0,0,0,3.193-2.759,5.3,5.3,0,0,0,.285-.47v0a4.278,4.278,0,0,0,.541-2.045V20.722c0-.212,0-.423-.014-.626A13.439,13.439,0,0,0,32.568,15.421ZM27.545,6.376c1.042-1.944,2.642-3.537,3.126-3.4.719.2.82,4.8.573,7.877-.034.434-.33.7-.6.532A8.706,8.706,0,0,1,27.5,7.1.95.95,0,0,1,27.545,6.376Zm-19.01.48ZM2.992,2.973c.485-.134,2.084,1.459,3.126,3.4a.946.946,0,0,1,.048.72,8.706,8.706,0,0,1-3.151,4.286c-.265.164-.562-.1-.6-.532C2.172,7.769,2.273,3.172,2.992,2.973ZM29.671,28.324c-2.7,2.475-8.081,4.07-12.842,4.07S6.684,30.8,3.988,28.324C2.071,26.564,2.08,24.36,2.08,21.968c0-2.371.006-4.555,1.908-6.3,2.7-2.476,8.08-4.071,12.841-4.071s10.145,1.6,12.842,4.071c1.9,1.745,1.907,3.929,1.907,6.3C31.578,24.36,31.588,26.564,29.671,28.324Z" style="fill: #f2f2f2"/>
      <polygon points="8.535 6.856 8.535 6.856 8.535 6.856 8.535 6.856" style="fill: #b7b7b7"/>
      <path d="M30.648,11.382c.266.164.562-.1.6-.532.247-3.081.146-7.678-.573-7.877-.484-.134-2.084,1.459-3.126,3.4a.95.95,0,0,0-.048.72A8.706,8.706,0,0,0,30.648,11.382Z" style="fill: #a5a5a5"/>
      <path d="M3.015,11.382A8.706,8.706,0,0,0,6.166,7.1a.946.946,0,0,0-.048-.72c-1.042-1.944-2.641-3.537-3.126-3.4-.719.2-.82,4.8-.573,7.877C2.453,11.284,2.75,11.546,3.015,11.382Z" style="fill: #a5a5a5"/>
      <path d="M29.671,15.668c-2.7-2.476-8.081-4.071-12.842-4.071s-10.145,1.6-12.841,4.071c-1.9,1.745-1.908,3.929-1.908,6.3,0,2.392-.009,4.6,1.908,6.356,2.7,2.475,8.08,4.07,12.841,4.07s10.145-1.595,12.842-4.07c1.917-1.76,1.907-3.964,1.907-6.356C31.578,19.6,31.573,17.413,29.671,15.668Zm-2.877,2.449,0,.006,0,0c-.18.275-.345.479-1.675.144a32.4,32.4,0,0,0-8.6-1.166A31.951,31.951,0,0,0,8.43,18.306c-1.187.3-1.368.105-1.58-.151v0l0-.006,0,0c-.2-.244-.44-.487.576-1.23a16.808,16.808,0,0,1,8.889-2.464,18.86,18.86,0,0,1,9.627,2.346c1.222.786,1.021,1.057.85,1.313Z" style="fill: #212935"/>
      <path d="M25.942,16.807a18.86,18.86,0,0,0-9.627-2.346,16.808,16.808,0,0,0-8.889,2.464c-1.016.743-.776.986-.576,1.23s.393.454,1.58.151A31.951,31.951,0,0,1,16.515,17.1a32.4,32.4,0,0,1,8.6,1.166c1.33.335,1.495.131,1.675-.144C26.963,17.864,27.164,17.593,25.942,16.807Z" style="fill: #d1d1d1"/>
      <polygon points="6.851 18.157 6.85 18.155 6.847 18.151 6.851 18.157" style="fill: #d1d1d1"/>
      <polygon points="26.794 18.117 26.792 18.12 26.79 18.123 26.794 18.117" style="fill: #d1d1d1"/>
    </g>
    <g>
      <path d="M46.6,34.1a2.241,2.241,0,0,1-1.743-.594,2.2,2.2,0,0,1-.634-1.624,2.084,2.084,0,0,1,.456-1.328,1.7,1.7,0,0,1,1.327-.614l1.188-.079q3.525-.237,3.526-3.882V8.149a2.259,2.259,0,0,1,2.536-2.575,2.259,2.259,0,0,1,2.535,2.575V25.935a8.006,8.006,0,0,1-1.981,5.784,8.541,8.541,0,0,1-5.863,2.3Z" style="fill: #fff"/>
      <path d="M68.389,34.214q-7.131,0-7.131-8V16.626a2.476,2.476,0,1,1,4.952,0v9.666a4.677,4.677,0,0,0,.831,3.05,3.278,3.278,0,0,0,2.654.991,4.234,4.234,0,0,0,3.249-1.367,5.12,5.12,0,0,0,1.268-3.625V16.626a2.476,2.476,0,1,1,4.951,0V31.6q0,2.536-2.416,2.535T74.33,31.6v-.673A6.433,6.433,0,0,1,68.389,34.214ZM72.112,11.6a1.406,1.406,0,0,1-.951.634,1.694,1.694,0,0,1-1.069-.2,1.586,1.586,0,0,1-.734-.792,1.331,1.331,0,0,1,.1-1.149l3.011-5.9A1.687,1.687,0,0,1,73.7,3.138a2.294,2.294,0,0,1,1.526.257,2.1,2.1,0,0,1,1.009,1.129,1.581,1.581,0,0,1-.277,1.525Z" style="fill: #fff"/>
      <path d="M86.769,41.266a2.188,2.188,0,0,1-2.456-2.5V16.626a2.437,2.437,0,1,1,4.872,0v.832a6.167,6.167,0,0,1,2.5-2.476,7.657,7.657,0,0,1,3.8-.931,8.1,8.1,0,0,1,4.457,1.228,8.192,8.192,0,0,1,2.991,3.466A12.36,12.36,0,0,1,104,24.113a12.522,12.522,0,0,1-1.069,5.368,8.186,8.186,0,0,1-2.971,3.5,8.07,8.07,0,0,1-4.477,1.228,7.634,7.634,0,0,1-3.7-.891,6.294,6.294,0,0,1-2.515-2.4V38.77A2.206,2.206,0,0,1,86.769,41.266ZM94.1,30.451a4.423,4.423,0,0,0,3.565-1.6,7.2,7.2,0,0,0,1.347-4.734,7.109,7.109,0,0,0-1.347-4.734,4.846,4.846,0,0,0-7.131,0,7.115,7.115,0,0,0-1.346,4.734,7.208,7.208,0,0,0,1.346,4.734A4.423,4.423,0,0,0,94.1,30.451Z" style="fill: #fff"/>
      <path d="M110.537,10.486a3.119,3.119,0,0,1-2.159-.693,2.448,2.448,0,0,1-.772-1.921,2.438,2.438,0,0,1,.772-1.942,3.183,3.183,0,0,1,2.159-.673q2.931,0,2.931,2.615T110.537,10.486Zm0,23.61a2.309,2.309,0,0,1-1.822-.713,2.876,2.876,0,0,1-.634-1.981V16.864q0-2.694,2.456-2.694,2.494,0,2.495,2.694V31.4a2.881,2.881,0,0,1-.634,1.981A2.359,2.359,0,0,1,110.537,34.1Z" style="fill: #fff"/>
      <path d="M127.055,34.214q-7.686,0-7.685-7.6V18.171h-2.06q-1.981,0-1.981-1.862t1.981-1.862h2.06v-3.6a2.476,2.476,0,1,1,4.951,0v3.6h4.2q1.98,0,1.98,1.862t-1.98,1.862h-4.2v8.161a4.231,4.231,0,0,0,.832,2.852,3.412,3.412,0,0,0,2.694.95,5.329,5.329,0,0,0,1.188-.118,7.382,7.382,0,0,1,.911-.159.932.932,0,0,1,.793.3,2.085,2.085,0,0,1,.317,1.367,3.6,3.6,0,0,1-.258,1.406,1.5,1.5,0,0,1-.931.852,10.993,10.993,0,0,1-1.346.3A9.1,9.1,0,0,1,127.055,34.214Z" style="fill: #fff"/>
      <path d="M142.742,34.214a12.2,12.2,0,0,1-5.665-1.228,8.72,8.72,0,0,1-3.664-3.485,10.627,10.627,0,0,1-1.288-5.348,10.719,10.719,0,0,1,1.248-5.269,9.176,9.176,0,0,1,3.446-3.546,9.744,9.744,0,0,1,5.012-1.287,8.407,8.407,0,0,1,6.517,2.615,10.156,10.156,0,0,1,2.4,7.13q0,1.467-1.9,1.466H136.879q.555,5.19,5.942,5.189a11.912,11.912,0,0,0,2.318-.257,8.423,8.423,0,0,0,2.436-.892,2.241,2.241,0,0,1,1.742-.376,1.563,1.563,0,0,1,1.011.852,1.964,1.964,0,0,1,.079,1.406,2.332,2.332,0,0,1-1.129,1.327,10.252,10.252,0,0,1-3.189,1.287A14.9,14.9,0,0,1,142.742,34.214Zm-.713-16.795a4.769,4.769,0,0,0-3.526,1.346,6,6,0,0,0-1.624,3.645h9.745a5.936,5.936,0,0,0-1.327-3.7A4.189,4.189,0,0,0,142.029,17.419Z" style="fill: #fff"/>
      <path d="M157.2,34.135a2.24,2.24,0,0,1-2.535-2.535V16.626a2.418,2.418,0,1,1,4.833,0v1.228q1.425-3.406,6.1-3.8,1.7-.2,1.9,1.941.2,2.1-2.061,2.338l-.871.079q-4.872.476-4.873,4.991v8.2A2.222,2.222,0,0,1,157.2,34.135Z" style="fill: #fff"/>
      <path d="M183.663,34.214a14.915,14.915,0,0,1-7.468-1.762,11.844,11.844,0,0,1-4.773-4.991,16.449,16.449,0,0,1-1.664-7.626,16.321,16.321,0,0,1,1.664-7.606A11.878,11.878,0,0,1,176.2,7.257,14.925,14.925,0,0,1,183.663,5.5a16.716,16.716,0,0,1,4.278.554,12.654,12.654,0,0,1,3.684,1.585,2.592,2.592,0,0,1,1.229,1.6,2.364,2.364,0,0,1-.239,1.7,2.134,2.134,0,0,1-1.306,1.03,2.3,2.3,0,0,1-1.942-.455,8.811,8.811,0,0,0-2.654-1.149,11.861,11.861,0,0,0-2.892-.356,8.086,8.086,0,0,0-6.457,2.555q-2.219,2.554-2.218,7.269t2.218,7.289a8.055,8.055,0,0,0,6.457,2.575,11.852,11.852,0,0,0,2.971-.377,10.25,10.25,0,0,0,2.773-1.168,2.36,2.36,0,0,1,1.9-.436,2.014,2.014,0,0,1,1.248.971,2.318,2.318,0,0,1,.257,1.6,2.494,2.494,0,0,1-1.07,1.545,11.784,11.784,0,0,1-3.783,1.763A16.505,16.505,0,0,1,183.663,34.214Z" style="fill: #fff"/>
      <path d="M202.8,34.214a8.346,8.346,0,0,1-3.744-.812,6.47,6.47,0,0,1-2.574-2.2,5.475,5.475,0,0,1-.932-3.13,4.914,4.914,0,0,1,1.109-3.386,6.628,6.628,0,0,1,3.6-1.8,32.2,32.2,0,0,1,6.695-.554h1.387V21.5a3.92,3.92,0,0,0-.872-2.852,4.054,4.054,0,0,0-2.932-.872,12.192,12.192,0,0,0-2.475.277,13.172,13.172,0,0,0-2.793.951,1.748,1.748,0,0,1-1.584.1,1.7,1.7,0,0,1-.852-1.07,2.22,2.22,0,0,1,.079-1.485,1.983,1.983,0,0,1,1.208-1.109,17.9,17.9,0,0,1,3.506-1.07,16.731,16.731,0,0,1,3.07-.317q4.237,0,6.3,1.961t2.061,6.081V31.6q0,2.536-2.3,2.535-2.338,0-2.337-2.535v-.871a5.405,5.405,0,0,1-2.14,2.555A6.365,6.365,0,0,1,202.8,34.214Zm1.029-3.406a4.282,4.282,0,0,0,3.229-1.347,4.732,4.732,0,0,0,1.288-3.407v-.871H207a15.852,15.852,0,0,0-5.169.574,2.081,2.081,0,0,0-1.446,2.08,2.768,2.768,0,0,0,.911,2.139A3.623,3.623,0,0,0,203.826,30.808Z" style="fill: #fff"/>
      <path d="M226.96,34.214q-7.686,0-7.685-7.6V18.171h-2.06q-1.98,0-1.981-1.862t1.981-1.862h2.06v-3.6a2.476,2.476,0,1,1,4.952,0v3.6h4.2q1.98,0,1.98,1.862t-1.98,1.862h-4.2v8.161a4.226,4.226,0,0,0,.832,2.852,3.408,3.408,0,0,0,2.693.95,5.323,5.323,0,0,0,1.188-.118,7.363,7.363,0,0,1,.912-.159.933.933,0,0,1,.793.3,2.086,2.086,0,0,1,.316,1.367,3.6,3.6,0,0,1-.258,1.406,1.494,1.494,0,0,1-.93.852,10.972,10.972,0,0,1-1.347.3A9.1,9.1,0,0,1,226.96,34.214Z" style="fill: #fff"/>
    </g>
  </g>
</svg>
